<svg width="1114" height="504" viewBox="0 0 1114 504" fill="none" xmlns="http://www.w3.org/2000/svg">
<path d="M397.908 295.525C393.643 318.232 378.288 335.127 359.987 335.127H313.46L330.365 478.192C332.148 493.692 317.414 502.837 309.97 490.437L219.551 340.785C218.477 339.052 217.741 337.133 217.38 335.127H46.7773C25.1418 335.127 8.00405 311.49 8.00405 282.35V60.7775C7.69387 31.6375 25.2194 8 46.8548 8H359.987C378.056 8 393.255 24.5075 397.753 46.75" stroke="black" stroke-width="15" stroke-miterlimit="10"/>
<path d="M509.807 272.197L547.339 233.912C559.282 221.616 570.035 209.732 579.599 198.262C588.348 188.03 595.966 176.883 602.32 165.015C607.577 155.51 610.451 144.873 610.695 134.015C610.756 129.893 609.964 125.804 608.369 122.002C606.844 118.435 604.57 115.237 601.7 112.625C598.78 110.009 595.346 108.029 591.619 106.812C587.394 105.42 582.96 104.765 578.513 104.875C574.132 104.8 569.772 105.509 565.64 106.967C562.12 108.135 558.875 110.007 556.102 112.47C553.723 114.691 551.754 117.315 550.286 120.22C548.945 122.861 548.253 125.783 548.27 128.745C548.099 134.554 549.096 140.339 551.2 145.756C553.304 151.174 556.474 156.115 560.522 160.287L532.451 185.862C525.981 182.463 520.604 177.304 516.941 170.982C512.651 164.204 509.361 156.843 507.17 149.127C505.191 142.955 504.069 136.54 503.836 130.062C503.848 118.345 507.182 106.871 513.452 96.97C520.273 85.8953 529.94 76.8499 541.446 70.775C555.346 63.6749 570.82 60.2088 586.423 60.7C599.674 60.3896 612.75 63.7708 624.188 70.465C634.617 76.7063 643.248 85.5451 649.236 96.1175C655.144 106.455 658.245 118.157 658.231 130.062C658.26 139.362 656.767 148.603 653.811 157.42C650.743 166.516 646.686 175.248 641.714 183.46C636.376 192.195 630.524 200.606 624.188 208.647C617.674 217.017 610.928 225.465 604.026 234.067L583.166 228.1H660.712V272.197H509.807Z" fill="black"/>
<path d="M739.422 134.402L742.834 159.125L742.213 157.187C747.224 148.454 754.274 141.062 762.763 135.642C771.689 130.272 781.972 127.581 792.386 127.892C799.189 127.775 805.961 128.851 812.393 131.07C817.936 132.988 822.954 136.172 827.049 140.37C831.173 144.676 834.019 150.042 835.269 155.87H833.718C839.312 147.547 846.574 140.474 855.043 135.1C862.763 130.043 871.792 127.349 881.021 127.35C892.992 126.72 904.726 130.843 913.668 138.82C917.684 142.673 920.863 147.31 923.011 152.443C925.159 157.576 926.228 163.095 926.153 168.657V272.197H882.262V186.947C882.263 181.832 881.316 176.761 879.47 171.99C878.354 169.892 876.655 168.162 874.578 167.007C872.5 165.852 870.133 165.321 867.761 165.48C864.365 165.454 861.001 166.128 857.879 167.462C854.756 168.795 851.943 170.759 849.615 173.23C844.452 178.538 840.671 185.032 838.603 192.14C836.18 199.838 834.951 207.862 834.959 215.932V272.352H790.835V187.102C790.834 181.933 789.696 176.826 787.5 172.145C786.246 170.065 784.452 168.362 782.309 167.216C780.166 166.07 777.753 165.524 775.326 165.635C772.034 165.62 768.777 166.303 765.769 167.639C762.762 168.975 760.072 170.933 757.878 173.385C752.887 178.724 749.198 185.142 747.099 192.14C744.715 199.659 743.512 207.502 743.532 215.39V272.43H699.33V134.402H739.422Z" fill="black"/>
<path d="M1039.37 275.995C1024.49 276.485 1009.72 273.234 996.412 266.54C985.122 260.639 975.838 251.523 969.736 240.345C963.398 228.431 960.246 215.084 960.585 201.595C960.418 188.316 964.138 175.279 971.287 164.085C978.463 152.934 988.329 143.766 999.979 137.425C1012.4 130.929 1026.29 127.727 1040.3 128.125C1058.14 127.425 1075.57 133.582 1089 145.33C1102.69 158.554 1111.44 176.053 1113.82 194.93L1006.57 228.875L996.8 204.927L1074.35 178.732L1065.2 182.84C1063.54 177.341 1060.43 172.389 1056.2 168.502C1050.79 163.993 1043.84 161.769 1036.81 162.302C1030.78 162.127 1024.82 163.716 1019.68 166.875C1014.69 169.946 1010.72 174.422 1008.28 179.74C1005.52 185.928 1004.16 192.652 1004.32 199.425C1004.08 206.913 1005.7 214.344 1009.05 221.047C1011.99 226.59 1016.49 231.145 1022 234.145C1027.64 237.128 1033.93 238.648 1040.3 238.562C1045.1 238.569 1049.85 237.702 1054.34 236.005C1059.02 234.267 1063.52 232.06 1067.75 229.417L1087.3 262.2C1079.78 266.478 1071.79 269.86 1063.49 272.275C1055.68 274.686 1047.55 275.94 1039.37 275.995V275.995Z" fill="black"/>
<path d="M79.889 115.415H93.7698V166.875H128.743V177.88H93.7698V278.63H79.889V177.88H55.8496V166.875H79.889V115.415Z" fill="black"/>
<path d="M209.392 280.49C199.149 280.613 189.048 278.076 180.08 273.128C171.199 268.24 163.865 260.964 158.91 252.125C153.607 242.667 150.93 231.964 151.155 221.125C150.837 209.833 153.656 198.674 159.297 188.885C164.532 180.111 172.139 172.992 181.243 168.348C191.2 163.585 202.161 161.298 213.192 161.683C223.367 161.754 233.284 164.886 241.652 170.673C250.128 176.119 256.815 183.934 260.883 193.148L258.867 197.255L260.573 165.17H272.748V278.165H259.177V243.213L262.046 248.405C260.475 252.639 258.106 256.532 255.067 259.875C251.538 263.823 247.526 267.312 243.125 270.26C238.36 273.584 233.135 276.195 227.616 278.01C221.713 279.807 215.561 280.644 209.392 280.49ZM212.262 268.942C220.345 269.08 228.337 267.216 235.526 263.518C242.171 260.053 247.827 254.96 251.965 248.715C256.276 242.14 258.789 234.552 259.255 226.705V210.508C257.748 203.521 254.613 196.989 250.104 191.443C245.58 185.874 239.924 181.33 233.509 178.113C226.489 174.723 218.762 173.053 210.967 173.242C203.173 173.431 195.535 175.472 188.688 179.198C181.595 183.069 175.696 188.804 171.627 195.783C167.175 203.471 164.947 212.245 165.191 221.125C165.062 229.614 167.261 237.976 171.55 245.305C175.674 252.474 181.611 258.433 188.765 262.587C195.846 266.866 203.988 269.068 212.262 268.942V268.942Z" fill="black"/>
<path d="M324.16 58.375H337.731V278.165H324.16V58.375Z" fill="black"/>
<path d="M389.223 278.165V58.375H402.871V278.165H389.223ZM398.218 237.09L397.055 223.527L466.149 162.845L474.524 170.052L398.218 237.09ZM429.237 204.772L481.891 278.165H465.606L419.078 212.213L429.237 204.772Z" fill="black"/>
</svg>
